$MeshFormat
4.1 0 8
$EndMeshFormat
$Entities
2 3 1 1
1 6.123233995736766e-17 -1.499759782661858e-32 1 0 
2 6.123233995736766e-17 -1.499759782661858e-32 -1 0 
1 -1.000000000616482e-07 -1.000000000615789e-07 0.9999999000000001 1.000000000616482e-07 1.000000000615789e-07 1.0000001 0 2 1 -1 
2 -1.000000002249202e-07 -1.000000002449294e-07 -1.0000001 1.0000001 1e-07 1.0000001 0 2 2 -1 
3 -1.000000000616482e-07 -1.000000000615789e-07 -1.0000001 1.000000000616482e-07 1.000000000615789e-07 -0.9999999000000001 0 2 2 -2 
1 -1.0000001 -1.0000001 -1.0000001 1.0000001 1.0000001 1.0000001 0 4 -1 -2 3 2 
1 -1.0000001 -1.0000001 -1.0000001 1.0000001 1.0000001 1.0000001 0 1 1 
$EndEntities
$Nodes
7 642 1 642
0 1 0 1
1
6.123233995736766e-17 -1.499759782661858e-32 1
0 2 0 1
2
6.123233995736766e-17 -1.499759782661858e-32 -1
1 1 1 0
1 2 1 19
3
4
5
6
7
8
9
10
11
12
13
14
15
16
17
18
19
20
21
0.3090169943749472 -7.568733460868295e-17 -0.9510565162951536 5.026548245743669
0.5877852522924729 -1.439658655611993e-16 -0.8090169943749476 5.340707511102648
0.8090169943749473 -1.981520145234183e-16 -0.5877852522924734 5.654866776461628
0.9510565162951535 -2.329416636978185e-16 -0.3090169943749476 5.969026041820607
1 -2.449293598294706e-16 -2.449293598294706e-16 6.283185307179586
0.9510565162951536 -2.329416636978185e-16 0.3090169943749472 6.597344572538566
0.8090169943749476 -1.981520145234184e-16 0.5877852522924729 6.911503837897545
0.5877852522924734 -1.439658655611994e-16 0.8090169943749472 7.225663103256524
0.3090169943749477 -7.568733460868307e-17 0.9510565162951535 7.539822368615503
0.1564344650402307 -3.83153933775694e-17 -0.9876883405951378 4.869468613064179
0.4539904997395466 -1.111956024698686e-16 -0.891006524188368 5.183627878423159
0.7071067811865474 -1.731912112470986e-16 -0.7071067811865477 5.497787143782138
0.8910065241883678 -2.182336575733387e-16 -0.453990499739547 5.811946409141117
0.9876883405951377 -2.419138729729992e-16 -0.1564344650402311 6.126105674500097
0.9876883405951378 -2.419138729729992e-16 0.1564344650402306 6.440264939859076
0.891006524188368 -2.182336575733387e-16 0.4539904997395466 6.754424205218055
0.7071067811865477 -1.731912112470987e-16 0.7071067811865474 7.068583470577035
0.453990499739547 -1.111956024698687e-16 0.8910065241883677 7.382742735936014
0.1564344650402312 -3.831539337756953e-17 0.9876883405951377 7.696902001294993
1 3 1 0
2 1 1 621
22
23
24
25
26
27
28
29
30
31
32
33
34
35
36
37
38
39
40
41
42
43
44
45
46
47
48
49
50
51
52
53
54
55
56
57
58
59
60
61
62
63
64
65
66
67
68
69
70
71
72
73
74
75
76
77
78
79
80
81
82
83
84
85
86
87
88
89
90
91
92
93
94
95
96
97
98
99
100
101
102
103
104
105
106
107
108
109
110
111
112
113
114
115
116
117
118
119
120
121
122
123
124
125
126
127
128
129
130
131
132
133
134
135
136
137
138
139
140
141
142
143
144
145
146
147
148
149
150
151
152
153
154
155
156
157
158
159
160
161
162
163
164
165
166
167
168
169
170
171
172
173
174
175
176
177
178
179
180
181
182
183
184
185
186
187
188
189
190
191
192
193
194
195
196
197
198
199
200
201
202
203
204
205
206
207
208
209
210
211
212
213
214
215
216
217
218
219
220
221
222
223
224
225
226
227
228
229
230
231
232
233
234
235
236
237
238
239
240
241
242
243
244
245
246
247
248
249
250
251
252
253
254
255
256
257
258
259
260
261
262
263
264
265
266
267
268
269
270
271
272
273
274
275
276
277
278
279
280
281
282
283
284
285
286
287
288
289
290
291
292
293
294
295
296
297
298
299
300
301
302
303
304
305
306
307
308
309
310
311
312
313
314
315
316
317
318
319
320
321
322
323
324
325
326
327
328
329
330
331
332
333
334
335
336
337
338
339
340
341
342
343
344
345
346
347
348
349
350
351
352
353
354
355
356
357
358
359
360
361
362
363
364
365
366
367
368
369
370
371
372
373
374
375
376
377
378
379
380
381
382
383
384
385
386
387
388
389
390
391
392
393
394
395
396
397
398
399
400
401
402
403
404
405
406
407
408
409
410
411
412
413
414
415
416
417
418
419
420
421
422
423
424
425
426
427
428
429
430
431
432
433
434
435
436
437
438
439
440
441
442
443
444
445
446
447
448
449
450
451
452
453
454
455
456
457
458
459
460
461
462
463
464
465
466
467
468
469
470
471
472
473
474
475
476
477
478
479
480
481
482
483
484
485
486
487
488
489
490
491
492
493
494
495
496
497
498
499
500
501
502
503
504
505
506
507
508
509
510
511
512
513
514
515
516
517
518
519
520
521
522
523
524
525
526
527
528
529
530
531
532
533
534
535
536
537
538
539
540
541
542
543
544
545
546
547
548
549
550
551
552
553
554
555
556
557
558
559
560
561
562
563
564
565
566
567
568
569
570
571
572
573
574
575
576
577
578
579
580
581
582
583
584
585
586
587
588
589
590
591
592
593
594
595
596
597
598
599
600
601
602
603
604
605
606
607
608
609
610
611
612
613
614
615
616
617
618
619
620
621
622
623
624
625
626
627
628
629
630
631
632
633
634
635
636
637
638
639
640
641
642
0.3569270192488653 0.280553875011349 -0.8910065241883678 0.6661618669406231 -1.099557428756428
0.4371529102920968 0.2734329305187583 0.8568148957219838 0.5589485663990361 1.029060416836544
0.9509980539041696 -0.26748511456887 -0.1550948579243063 6.009001376384528 -0.1557234724246406
0.7010326263701239 -0.2642085807282115 0.6623798627933902 5.922763184928511 0.7239909912989153
0.455723059211972 -0.2804055822079273 -0.8448012800470385 5.73159299939118 -1.006193674607524
0.8579604780797957 0.2698172279020973 0.4371526982420629 0.3046938631602453 0.4524304047631573
0.8579604780797949 0.2698172279020994 -0.4371526982420629 0.3046938631602478 -0.4524304047631572
0.1506325540503649 -0.2698172279019947 0.9510565162951921 5.221564115434828 1.256637061436042
0.6808812905078324 0.2698172279020885 0.6808812905078397 0.3772923136303406 0.7489652640966782
0.6212581076243343 0.2996097381118904 -0.724066549800193 0.449357510850779 -0.8096800754038853
0.9503583486325039 -0.2696663821281751 0.1552386921305423 6.006700483578485 0.155869070067558
0.852583363144894 -0.5225860288129365 -0.002334818636738826 5.733302338564708 -0.002334820758073881
0.8168856169729819 -0.4993851513833301 -0.2886388043221479 5.734477915419522 -0.2928048262133993
0.8103653224198305 -0.503757925427858 0.2992256619810953 5.727003661471992 0.3038810307034477
0.6692191928879875 -0.7291939860450101 0.1429048725066445 5.454925661307981 0.1433957933436987
0.598232868938023 -0.6710480447953692 0.4379634186761429 5.440482685720465 0.453332016587097
0.1396663028336859 -0.2630486925403432 -0.9546196673050399 5.200490712288373 -1.268380133659886
0.4514631740141711 -0.2764825965481388 0.8483739601820941 5.733687466640614 1.012906200527285
0.2656805088149847 -0.5189327480995084 0.8124793352361049 5.185570501439646 0.9483923911916428
0.9562426915941572 0.2605200766244171 0.1331510587579743 0.2659859278519641 0.1335476749623666
0.8205353904539959 0.5142067451245198 0.2496259126792635 0.5598009160788499 0.2522939186777864
0.4315330339435516 0.5487851291736286 -0.7159707554176757 0.9044388263196597 -0.7980136244674272
0.422743370398015 -0.8638491071672689 0.2739575931249925 5.167497915171277 0.2775056608339427
0.2533321381291598 -0.5194986426167723 -0.8160539125022559 5.166105727945163 -0.9545503090796668
0.4746165702604443 0.5196832012319649 0.7104002263453397 0.8306921575155206 0.7900667128237867
0.1794310196242874 0.4693963227069368 0.86456439981403 1.205676744574884 1.044282896194748
0.4549014889623817 -0.8896283518779411 -0.04032407314181261 5.185066423430982 -0.04033500917707354
0.5334972857945518 -0.50646669138899 -0.6774010160631115 5.523773149437735 -0.7442237796283523
0.3299386131026945 -0.73041111835266 -0.5980301913538203 5.136669271902846 -0.6410411148421183
0.8702062666223009 0.4902724104444173 -0.04872388621916177 0.5130713066620514 -0.04874318540015788
0.6985731805597849 0.7142697866770319 0.04259323001291784 0.7965076502363178 0.04260611919221809
0.2296843115287244 0.7082599887008079 0.6675424371851632 1.257203308806084 0.7309032439970454
0.7069936913703736 0.6602762528044179 -0.2533676979116501 0.7512430421439206 -0.2561599687986019
0.5046140344474414 0.8477531853187149 -0.1633377268748685 1.033886417430105 -0.1640728744561933
0.4459016531317896 0.8671684464372168 0.2217895426705262 1.095850040607463 0.2236493390273757
0.1957393008348495 -0.9778799588436227 0.07373542025837339 4.909945115060223 0.07380239976188444
0.1329484054053207 -0.916355680689009 0.3776466443239838 4.85646751942897 0.3872534164853573
-0.04078294352825544 -0.5000378079804607 0.8650427400465639 4.631009386926861 1.045235556160446
-0.15879096852963 -0.2269691626539187 0.9608696204572195 4.101921635986967 1.290124724363275
-0.06278227295493724 0.6521448166384468 0.7554902542946654 1.666771005224171 0.8564020941823608
-0.00810393003187752 0.8557402770446654 0.51734215424761 1.580266125052873 0.543742261523218
-0.3039279940705278 0.7442868971468833 0.5946972247755407 1.958478393096987 0.6368889865826241
-0.1005857430240445 -0.9805320120393189 0.1686400950735794 4.610163735556264 0.1694498409113657
-0.2503121699490721 0.908734499852111 0.3339841708134093 1.839582131510191 0.3405273111637948
-0.5249866990376768 0.7644318034931047 0.3742098123269926 2.172585907114137 0.3835445302252376
-0.451923384210324 0.8869049507643477 0.09573329156347811 2.042055580271172 0.09588012837467749
-0.3496351647243791 -0.4195763861086932 0.837681865512275 4.017667335290152 0.9930248676062462
0.03514175063573569 -0.7120882946113578 -0.7012098958512665 4.761699246915604 -0.7770930995530048
-0.5578090220966424 0.5621381566949253 0.6106142707595517 2.352329028393287 0.6568360239391742
-0.7517046929582519 0.5490049396020039 0.3654225374510175 2.510788849829515 0.3740866931405741
-0.7516770591270082 0.3188376499659227 0.5773423176473208 2.740426595864291 0.6154699700932605
-0.9078594242555867 0.2839340396968504 0.3085007729191973 2.838479035292752 0.3136165258274501
-0.8729743723417194 0.4810256495227656 0.08080884689056389 2.637967276107263 0.08089705423816033
-0.9781767908615764 0.2072992377015008 0.01404250220312235 2.93275834157549 0.01404296375528707
-0.8971795561961635 0.3901597641193665 -0.2069884112842441 2.731388733447979 -0.2084956986222765
-0.9548315645414797 0.1004649748246536 -0.2796488372740923 3.036760888474862 -0.2834283342052565
-0.8206862560040665 0.2795690009485129 -0.4983123949037173 2.813269183815408 -0.5216511908232208
-0.9944324272272498 -0.09795994042506151 -0.03883294671846237 3.239784250475335 -0.0388427133469242
-0.9222459365616031 -0.2071687888868163 -0.3264100571471125 3.362559731815602 -0.3325031082327307
0.1834719611680489 0.5010291323794295 -0.8457587409966664 1.219771592218793 -1.007985588812764
-0.91361990091357 -0.3989235422328132 -0.07847728401966718 3.553281535624818 -0.07855806088647492
-0.7955325746014654 -0.491919372526284 -0.3537559238815811 3.69539728941974 -0.3615836499612009
-0.7611350028438447 -0.2826413132177686 -0.5837699851040953 3.497152366167656 -0.6233642835755074
-0.9376616866552163 -0.2782070648190273 0.2083060019866838 3.430021968232154 0.2098426478375772
-0.8105616108825711 -0.5611756084770717 0.1675464455422431 3.747151970389297 0.1683404052650499
-0.7138470175755108 0.5780614864020698 -0.3953066574662993 2.460914609602993 -0.4064016768808646
-0.6051533012954253 0.4204977029517604 -0.6759964228777703 2.534323709448958 -0.7423160379796491
-0.464381110892345 0.6786288794782291 -0.5690457167789902 2.170902833006767 -0.6053448919507742
0.187744332960441 0.7341600275606418 -0.6525037313099418 1.320435118025093 -0.7108837666450691
-0.170160273810633 0.9844745574140953 0.04307350718262503 1.741949052468858 0.04308683755541143
-0.5249321356083021 0.3098710149269832 0.7927333770655985 2.608330986305795 0.9152801310768133
-0.5953716525426768 -0.5479615533534469 -0.5875974228969013 3.8855479957368 -0.628086380392833
-0.594877514188219 -0.7311535435343811 -0.3339689190484099 4.029401148742592 -0.3405111303169824
-0.5390479091791859 -0.3243867630844817 -0.7773034025045307 3.68331792350864 -0.8903681334776201
-0.05203709193073147 -0.9844854839200967 -0.1675722919041382 4.659580978542431 -0.1683666222834861
-0.6990561222536325 0.04743990203771749 0.7134914110445664 3.073833749577558 0.7944686545328677
-0.1709321209591989 -0.8735796289437008 0.4556762468233074 4.519161656285565 0.4731317701565547
-0.7974897652646343 -0.40179822888088 0.4500758353503843 3.608298526550996 0.4668502601538631
-0.3862300653530197 -0.89283108567554 0.2316872656596351 4.304106888669284 0.2338117853840767
-0.4483350138760719 -0.7375533246169034 0.504985948991945 4.166204312130713 0.529365686065187
-0.3297241885467167 0.5091986240689419 -0.7949834719876292 2.145437086731312 -0.9189803334411561
-0.5006088199586554 0.2260636929674353 -0.8356350974567355 2.717427629347563 -0.9892879962007138
-0.1143414601892869 0.3765549448176346 0.9193108310115626 1.865599712251067 1.1663256483251
-0.3640768444247163 0.913822013626956 -0.1799371522629957 1.949932222670493 -0.1809225603215009
-0.07438705466455738 0.9677528189890057 -0.2406679194183654 1.647511236756793 -0.243053938124025
-0.3648584408113792 -0.7551083151164548 -0.5446923449165393 4.262282099441064 -0.5760222192398927
0.4869006321121223 0.7190276434148181 0.4959102967817355 0.9755605542281591 0.5188827958667255
-0.1521295446889732 0.2979596432036982 -0.9423781898233058 2.04286490647035 -1.229669215834304
-0.2544190872670963 0.003318804331989 -0.9670883690604409 3.12854875762475 -1.31352696777929
-0.4574608311337776 0.0401669218928546 0.8883221298403224 3.054013191016983 1.093678424728387
0.0516277918362656 -0.7587722997293163 0.6493066827575362 4.780325488214378 0.7066724537867498
0.4718555144772147 0.7467039305053171 -0.4688129836356429 1.007237863998391 -0.4879464513166955
-0.6603962997927846 -0.03746342128023285 -0.7499821459781415 3.198260613627774 -0.8480350866506958
-0.8755766085628752 -0.1265053019308967 0.4662209895756583 3.285081975855711 0.4850142766272635
-0.6181791088052653 0.7728275785374289 -0.1434995584965406 2.245471815387778 -0.1439966723322905
-0.1690313656792332 0.7375323982092608 -0.6538152330806539 1.796090528355135 -0.7126157621778484
0.1200196207970378 -0.8918575867551478 -0.4361024370156846 4.846157963723708 -0.4512629838184372
0.1687644519228683 0.9855263372163161 0.01601244578962878 1.401198366136785 0.01601313012955762
-0.3483879170786426 -0.8995293935105307 -0.2635767998974522 4.342878415845834 -0.2667282527005784
-0.5764928164425405 -0.8170915372428322 -0.004177601739353279 4.097952886435532 -0.004177613890947712
0.1882506182999608 0.9293683913062559 0.3175470011675505 1.370942763075457 0.3231414732361537
0.6134454888565066 -0.6587663452922025 -0.4355588760569071 5.462178530194843 -0.4506590464326284
0.2249597314763762 0.9120228571100949 -0.3429393930752429 1.328963475719107 -0.3500442699210296
-0.5648047232459186 -0.211947569462445 0.7975423828224198 3.500589618479599 0.9232103023535717
-0.5794573587738802 -0.4650165308383589 0.6693196511457409 3.817858228020044 0.7332926998329462
-0.2366091774971595 -0.6737428098760514 0.7000619424482668 4.374657803345614 0.7754842370749784
0.8527104539816096 -0.2459350607989367 0.4608696426759963 6.002389923792379 0.4789748640508605
0.6960448696791576 -0.2371008564340738 -0.6777202396797318 5.954873060054851 -0.7446578217522162
0.7383552949632732 -0.4356623338363973 -0.5148104401388159 5.75011833590391 -0.5407865229732374
0.697215731933302 0.528195284600135 -0.4846647959888281 0.6483334000024048 -0.5059799052721207
0.347292924577951 -0.7337483028081991 0.5839529541531415 5.154460326327854 0.6235896556341538
0.6950102695017686 0.5301053528082009 0.4857458596953471 0.6515988060905206 0.5072162542372338
0.6829752857073232 -0.715076601189415 -0.1490309147270943 5.474829715672258 -0.1495881705133927
0.4146754880735916 -0.8482261971288863 -0.3294792225546194 5.167096004491206 -0.3357519461480011
0.6438850005135907 0.6994383846715863 0.3101581083280196 0.8267297944472218 0.3153593378326499
-0.2972541114780262 0.5256842530929837 0.7970546149790998 2.08543248887451 0.9224021845942558
0.2379496082268837 -0.9521921223690977 -0.1915989197331388 4.957270357401967 -0.1927909898820603
-0.7701004523871432 -0.6262692692633418 -0.1213758444233334 3.824349142941494 -0.1216758577221246
-0.04870127384665747 -0.4702806835042469 -0.8811720970664535 4.609198922601141 -1.078335579611024
-0.333027877417141 -0.561448175930054 -0.7575410078720812 4.177015024095555 -0.8595379264000144
-0.9689297499821217 0.02104148294224706 0.246439435957751 3.119879855318857 0.2490046562705454
-0.8468433672549343 0.005714507259743869 -0.5318116731918388 3.134844746308271 -0.560738408223723
-0.0474635956527019 0.5900070474485387 -0.8060017934525796 1.651069273113278 -0.9373659903849192
-0.698648046173333 0.7071703312001931 0.1086325469111062 2.350132412210427 0.1088473522557259
0.8661092531030128 -0.2422987088950982 -0.4372025815993196 6.010403469893086 -0.4524858692216802
0.5402416852612598 -0.4857275826755392 0.6871736584985275 5.550871469735354 0.7575914688967459
-0.5959480054569651 -0.7520023710628734 0.2816707452109313 4.04224930116176 0.2855349116144705
0.952973978467038 0.2564234474475258 -0.1615165996541267 0.2628514163717967 -0.1622272378920918
-0.01462904509434245 0.8776181270754719 -0.4791371558000572 1.587463815698221 -0.4996714190309162
-0.3034152571707645 -0.286217973431629 -0.9088555734552604 3.897833013475969 -1.140532109458371
-0.3017858446842516 -0.9533521797647154 -0.006702632772168642 4.405816589290381 -0.006702682959465716
0.09058624877843947 0.1905528950128461 0.9774884785686602 1.127032795515875 1.35820990394203
-0.1973201026088888 0.08799498112396975 0.9763819234313025 2.722111466319675 1.353027479126141
-0.2878703617800115 0.8529298840108065 -0.4354782058495666 1.896299050804795 -0.4505694307681107
0.1498181364214778 0.3047344838543296 -0.9405803635783765 1.113863087588601 -1.224335387206446
-0.7314557619932118 -0.2478245862327183 0.6352601378219098 3.468264156186016 0.6883453093590838
-0.1375827891332612 -0.8707453819315423 -0.472094753179068 4.555678778969594 -0.4916654921086626
-0.3433904648122909 0.2222815344623102 0.9125096756271024 2.567107813678282 1.149377978255508
0.7251853405213528 -0.4530639739871885 0.5184971141364876 5.7247613910327 0.5450924141314125
-0.4601950358024465 -0.1083766469907535 -0.8811782063861013 3.372879868025474 -1.078348501458117
-0.0502277688492161 -0.2892680239368302 -0.9559294856651881 4.540465658120617 -1.272809498313098
-0.7104189493493918 0.185999857711942 -0.6787554562111775 2.885523269901439 -0.7460665820114173
-0.8606326124626711 0.126065665070423 0.4933750646881433 2.996146786228636 0.515965704327272
-0.7897543446414336 0.6004310913334058 -0.1255809686224593 2.491547424822849 -0.1259134141339286
-0.5070504041559976 0.7824991382674807 -0.3613792831027943 2.145756152831612 -0.3697467227931165
-0.6438413033196665 -0.6022989413136882 0.4719156295695699 3.893666331117557 0.4914623109950058
-0.03553269700960979 0.9642933100142028 0.2624420692363857 1.607628095250203 0.2655521139500321
0.8430492816075711 0.4544336531682182 -0.2876768389167708 0.4943863631627682 -0.2918002495593857
0.2860415446647244 0.8284628000356713 0.4814868883810584 1.238343462739443 0.5023504067161675
-0.1824585577315883 -0.7135091380548475 -0.6764714218817651 4.46203407425617 -0.7429608152820077
-0.3917812796843448 -0.2012538866168795 0.8977774234243683 3.616131702768943 1.114697114946891
-0.7993087677730355 -0.6004668069667831 0.02334753717777996 3.785882162284973 0.02334965885117113
-0.6807954068304941 -0.7297180449465349 -0.06347589241522326 3.961661194813629 -0.06351859594827357
-0.7068873073567885 -0.7024090275499391 0.08325798889126676 3.923813156886425 0.08335447942434768
-0.592650312698487 -0.793152181364745 0.1402684000576474 4.070676615583523 0.1407324895945389
-0.711803128691736 -0.6645700701273979 0.2273387953595279 3.892687235510103 0.2293440472236342
-0.3462563323227341 -0.713445313509495 0.6091816945359952 4.260546189025886 0.655028310332706
-0.4165587754322873 -0.5812763731835265 0.6989968273096515 4.090590408725845 0.7739937391657362
-0.5216800071530743 -0.6103923978132491 0.596046215346227 4.005193827722856 0.6385679838447187
0.3701271977409045 0.892769183402584 -0.2568443938635776 1.177781692159998 -0.2597556365849358
0.2003330585712622 0.9655028822635789 -0.1663455739844163 1.366208467008204 -0.1671224407601048
0.3438085745504816 0.9360222106186186 -0.07522024524156021 1.218786201021718 -0.07529136021992218
0.3908620370317236 -0.8109230462170712 0.4354660504809042 5.161530301284947 0.4505559278367944
0.2438637824468638 -0.8379133025895192 0.488294739838792 4.995602700086454 0.5101346297563126
0.2812949452503499 -0.9011517357990676 0.3298464837510476 5.014955391516738 0.3361409533457873
0.3125798959202161 0.9421621558176726 0.1209308927094424 1.250454619685666 0.1212276040784382
0.4845627875560998 0.8742488074450028 0.02979811398146822 1.064686928735809 0.0298025255056867
-0.2967162038964202 -0.5533623066627203 0.7782992046187709 4.220197796288252 0.8919525192528405
-0.4694559723748446 -0.4469710147033128 0.7614643800051846 3.902460278581083 0.8655692520405117
-0.05405146973580698 0.1591833807322993 -0.9857682739457763 1.898135648184879 -1.401884445864141
0.07604726097651227 0.154682359397515 -0.985033086646935 1.113863087588601 -1.397565857000671
-0.1282693095915922 0.001673226426942181 -0.991737961626064 3.12854875762475 -1.442161647287093
0.7283298177176193 0.1525683455164881 -0.6680258801646692 0.2064912320724363 -0.7315527231161794
0.7528278559863371 0.2898019847155036 -0.5909864879216529 0.3674663389759508 -0.6322811902598829
0.8438782781673287 0.1365902667938345 -0.5188569655064234 0.1604684552527881 -0.5455133075783253
0.3703725918870565 0.8580110335494054 0.3558668423530703 1.163294663956005 0.3638414674129065
0.3890339494826955 0.7788762692607994 0.4919393695693346 1.107563950925166 0.5143159034337129
0.472268258239162 0.8030748599466717 0.3633640895594688 1.039191346051765 0.3718762671077708
0.1676679105409968 0.4053546832053178 -0.8986517971819412 1.178593231431498 -1.116686334436267
-0.00116911204179266 0.304843143191119 -0.9524018538549747 1.574631434574465 -1.261020243891922
0.01600103030728704 0.4079022950200042 -0.9128853623246014 1.531588823960511 -1.150297346759701
0.4780638437461198 -0.7102739515106904 0.5166874056023379 5.304811332033782 0.5429773471808423
0.5166515123449739 -0.77671438795794 0.3602582050845947 5.299358644069226 0.3685446695118068
0.005507075081748901 -0.639230866115664 0.7689951702898153 4.721003925521013 0.8772677848733244
0.1612961840398787 -0.64949119868689 0.7430644143292292 4.955806914365666 0.8376378764000649
0.1138381138125752 -0.5157800885341102 0.8491241276252494 4.929616943819076 1.01432483491993
0.4395921658564068 -0.8785274510662633 -0.1869444982894329 5.176335627240299 -0.1880508850282509
0.5574112056851871 -0.7938795457320552 -0.2429979725118126 5.324546892421984 -0.2454552684082666
0.5757659360846239 -0.8119811125511833 -0.09581367180491104 5.329188164282624 -0.09596087981803306
0.2548401065652532 0.2943391684670837 -0.9210977005681407 0.8571983283501908 -1.170890597285065
0.2729685856127047 0.3947964666805787 -0.8772821103642375 0.9658547128124448 -1.070169995096749
0.5976370085575123 0.713291762578194 -0.3661213834789238 0.8733938562989946 -0.374837571694682
0.4947463856188001 0.8078612343281417 -0.3202908677857438 1.021298083738462 -0.3260365144075369
0.6122832325363549 0.7620792765338094 -0.2105811469066921 0.8939627292340556 -0.2121693989722414
0.5197210261226233 -0.7617933376331456 -0.3867311284908416 5.311091418305971 -0.3970842731059173
0.6556368450037313 -0.6947914385781776 -0.2956436780180148 5.468801060159373 -0.3001292464243788
0.5696477196192548 0.7145703968492644 0.4060672647225677 0.8977717098734855 0.4181464140634303
0.5500844747559842 0.7907658741800339 0.2685077333424867 0.9630058564090725 0.271843540751281
0.612074062507681 0.1516764043810847 -0.7761182966271115 0.2429138578125018 -0.888486585397963
0.0710308574443536 0.6704892242699582 -0.7385112168603735 1.465251147782403 -0.830859592957582
-0.1090644780185481 0.6687795216984714 -0.7354174943467863 1.732453131972529 -0.8262825990602881
0.009509021781128805 0.747842665541447 -0.663807898492199 1.558081741492276 -0.7258987632212959
0.5855483751450067 0.400079229180363 0.7050317090340611 0.5993995194946364 0.7824678573665397
0.4607176767047122 0.4007620669160631 0.7919147606232486 0.7159141273830734 0.9139383572712918
0.565440897084711 0.2747463867376485 0.7776831069777996 0.45230219095409 0.8909719015995609
0.2385402878701027 0.8840828315372565 0.4018657462933554 1.307255371165237 0.4135534486876245
0.3202716698270343 0.9073212836261298 0.2723860234763072 1.231463894420551 0.2758719533294825
0.4952028722369956 0.2937058432940816 -0.8176252154521301 0.5353320466215216 -0.9572741813846468
0.4807666954801422 0.1427746452084199 -0.8651466842118243 0.2886772638825456 -1.045442777841123
0.2097581095101267 0.8366775119301602 -0.5059370282209974 1.325155510750569 -0.5304679405078774
0.3530331838368956 0.8403742632611919 -0.4112647185915584 1.1730914694402 -0.4238411178635827
0.3346291186030665 0.7512739776755297 -0.5688679666236468 1.15176135898641 -0.6051287474879642
0.6689515759624484 0.4200018672487528 -0.6132717346535038 0.560646793996196 -0.660196070872793
0.7869752051651558 0.4038230887968113 -0.4664728710331004 0.4740988663416538 -0.4852990165265634
0.201802632121437 -0.7550236768721748 0.6238709361969684 4.973563779795557 0.6736860096994404
0.09352669934367609 -0.8488049560459039 0.5203680458116051 4.822132601542529 0.5472818903437618
0.1806532628358753 0.9689562417600712 0.16878447849536 1.386471514755779 0.1695963241201458
0.6422403154196703 0.1365902667938289 0.7542350272075893 0.209555518967728 0.8544882952133009
0.5189803345620539 0.1384535369461364 0.8434986843172687 0.2607081318581411 1.003763939079563
0.3365505527329855 0.1417845340971681 -0.9309301108815693 0.3987219115273384 -1.196951504650363
0.7084236363909233 0.5995838756689256 -0.3723373838879081 0.7023790695632615 -0.3815262205239887
0.5918900107989604 0.6454697372065689 -0.4827370230952763 0.8286727859896753 -0.5037773228136996
-0.09617805147199691 -0.9410009578483919 -0.3244487320725092 4.610534433338886 -0.330428874557275
-0.008857305851186013 -0.888900754635925 -0.4580141881434915 4.702424974075683 -0.4757600119698114
0.03446980360138811 -0.9513793942881282 -0.3060867209854686 4.748604535060704 -0.3110797294092904
-0.2064717427221329 -0.7839165299474202 0.5855290714665503 4.454853015136737 0.6255325538324501
-0.3134931887750773 -0.8156079642215731 0.4863184854495817 4.345431111003342 0.5078714767614765
-0.2058081558961739 0.152516960640719 -0.9666341498641219 2.503835329122968 -1.311747815407644
0.0762764815464823 0.9522489584793316 -0.295641369632055 1.490865579607949 -0.3001268300219525
0.04794576629420737 0.9923082078057626 -0.114129856811339 1.522516460581979 -0.1143790892477558
-0.2457265820487158 -0.8951230275735124 -0.3719855002312384 4.444471768622703 -0.3811471041843558
-0.2028738692444308 -0.9545292609070641 -0.2184401136467554 4.502967100017707 -0.2202156944299112
0.08756598351711729 0.8152771546744179 -0.5724118793287446 1.463800110407453 -0.6094442829990375
0.1061942567274577 0.9035752100356187 -0.4150597784020879 1.453806251454774 -0.4280085074042847
-0.152730277006816 0.8737441168490757 -0.461784236150445 1.743847713518384 -0.4800057053499945
-0.1833588609992844 0.9215499573194427 -0.3422355975896991 1.767199287413373 -0.3492951416074103
-0.04489447462810287 0.9306963497830255 -0.3630272588228312 1.618996475166306 -0.3715147493652247
-0.1012608213635436 0.450497628751115 -0.8870164218019885 1.791897058816461 -1.090842885811065
0.06854463656402003 0.5498535192386114 -0.8324438360509497 1.446776300190294 -0.9835035686300955
-0.8100290214525332 -0.188681994566597 0.5552045472895752 3.370444310235442 0.588608880649792
-0.7238438086407639 -0.1013953219111861 0.682472804869879 3.280766082426129 0.7511404961554021
-0.7996624069436236 -0.04015261892324228 0.5991058354871328 3.191762481154669 0.6423838710023309
-0.4874952684675418 0.05971237285273717 -0.8710813944460386 3.019711666845424 -1.057399850636241
-0.5647121613841568 -0.07349482148724193 -0.8220089330411151 3.271010867294833 -0.9649297854630434
-0.588072358356946 0.09552981694137481 -0.8031469077395785 2.980553667385094 -0.9325585569845563
-0.7385637143848589 -0.5908267074375702 0.3247267182917362 3.816313563145011 0.3307227737758545
-0.7265273153042313 -0.5061321699549336 0.4647453998196607 3.75006389748709 0.4833470500671923
-0.8148322410887948 -0.487958371009426 0.3129617341529783 3.681162598744305 0.3183098208468275
-0.1403863090370819 -0.5940425703188714 0.7920890788818475 4.480323012366171 0.9142238821719424
-0.09358365943306296 -0.7247216019658476 0.6826570869266444 4.583969125444068 0.7513926523807178
-0.06041369391458536 -0.8265954010614126 0.5595446617846669 4.639431321323869 0.5938363036152251
-0.4952110375892379 -0.829319760826248 0.2588334649014402 4.174083043082109 0.2618143163033552
-0.4873417933102848 -0.865583204920463 0.1151681025837249 4.19960359536893 0.115424226636515
-0.6246680213152638 -0.6823649107780376 0.379694603181233 3.971105586378463 0.3894661553099272
-0.3290655716766472 0.891755064940649 -0.3106263892360405 1.924304224216809 -0.3158519495441651
-0.221755384215263 0.9516162010217575 -0.2127231899075867 1.799740829571381 -0.2143610952166025
0.3105915443730732 -0.6347292084988317 0.7075674698870743 5.167463577001134 0.7860498880243886
0.3317615836590406 0.5017044543876853 0.7988910389130675 0.9865399110844437 0.92544922027937
0.3124150216366368 0.3763818775658063 0.8722003992752 0.8780000760367401 1.059682863453846
0.180740214426581 -0.9310686864040983 -0.3169291341716321 4.904125555789676 -0.3224899525314307
0.09396849353152067 -0.9788834057268601 -0.1815411804963267 4.808091322240975 -0.1825534477310755
-0.3222558710371641 -0.4292062848445078 -0.8437612924471316 4.068364457788936 -1.004253035615862
-0.1782902717351322 -0.3830446435520702 -0.9063605132896513 4.276756776745104 -1.13458879143437
-0.1934061384088899 -0.5227337077285461 -0.8302671476278753 4.358018035692865 -0.9795868174801711
-0.4162464851027777 0.4230147909369036 0.80485859024315 2.348130065797631 0.9354371521801551
-0.4331990223596263 0.5511214153871168 0.7131646321350807 2.236961923883073 0.7940023805809707
-0.5481188313529554 0.4414394379277013 0.7104202765675721 2.463584808968941 0.7900952018400633
-0.5668763028978967 0.7835537984605313 -0.2543515325900065 2.197099779615941 -0.257177124454735
-0.6170959754126276 0.6876879833178225 -0.3824628017596013 2.302144735740669 -0.3924602846599905
-0.6754068549801144 0.6849713505671836 -0.2732029083813698 2.349163843893703 -0.2767210422234276
0.757925642990945 -0.61370471292484 -0.2211679113944937 5.602547835523941 -0.2230118764864993
0.7231993364532345 -0.5855807725179358 -0.3661664629794745 5.602552416911005 -0.3748860151976183
0.9125794545153902 -0.124425875031777 0.3895085888898591 6.147675642699442 0.400097983142576
0.9134303470282009 -0.2612024589734678 0.3121190102415332 6.004660601209627 0.3174226538018123
0.9623708544281466 -0.136487344958836 0.2349756225937638 6.142300816661695 0.2371934884149679
-0.7593379046844757 0.595153813471172 -0.2630549083748705 2.476820543019047 -0.2661872697055975
-0.7092597960666349 0.6917920458207228 -0.135551861007861 2.368661441621272 -0.135970443269229
0.5764751345390658 -0.585742020335991 0.5697216029525978 5.489813858082675 0.6061670660215392
0.4499630952674141 -0.6182509819370788 0.6444369140817477 5.341530077547384 0.700286664779408
0.1367005011901835 0.3341097010425604 0.9325683249197366 1.182428228511824 1.201463296959314
0.2686657471235331 0.236209681105958 0.9338220938028696 0.7212012042380506 1.20495213255183
0.3565173295452644 0.6215852318628433 0.6975150129308535 1.050043824316276 0.7719237257704525
0.207121089491918 0.5962070831674082 0.7756532525998276 1.23644151350305 0.8877494421373378
-0.05192298346270465 -0.8022707307221755 -0.5946979724320894 4.647759090691735 -0.6368899165621408
0.07866794841295092 -0.8132122749841444 -0.5766256582112954 4.808826190317408 -0.6145925232556738
0.8415266071675666 -0.3793492780478515 0.3846129153754694 5.859677080884448 0.3947884446913442
0.8910208472660452 -0.3913942847163828 0.2299833985935726 5.869294372070997 0.2320606241565647
-0.7878361555999838 0.08764181975741206 0.6096171777099522 3.030804448812074 0.6555775640935756
-0.8752176091037308 -0.0002216195590010127 0.4837293536674408 3.141845870106416 0.5049107780982894
0.4860050976262166 0.6261144194796671 0.6097374671126673 0.910721951965087 0.6557293201612805
0.3626585882943681 0.7223402087171054 0.5888152267111175 1.105501564067032 0.629592238805508
0.08447537401738475 0.6885518339266709 0.7202501531973744 1.44872080128885 0.8041628511347546
0.05909741092768587 0.5682030838451724 0.8207635174217237 1.467161397112895 0.9627462691902517
0.9876735427012736 -0.1354117038699361 -0.07851524376168069 6.146933092819414 -0.07859613811930193
0.962555582929456 -0.1353637768404359 -0.2348688946855837 6.143471952418953 -0.2370836876400986
0.3996701713317583 0.4203916996842825 -0.8145763150154828 0.8106610376376222 -0.9519983995559439
0.5329750886969254 0.429499557688251 -0.7290183020844546 0.6782996502696268 -0.8168866584711446
-0.08975276847389956 0.5212664044515374 0.8486611668630991 1.74130657030888 1.013448952803052
0.0329505895810924 0.4282498339790287 0.9030594323427406 1.494005180747546 1.126840002930179
0.1122138715519651 0.7920490241149769 0.6000553228076824 1.430057559868978 0.6435702640963634
-0.03589994213276142 0.7636604208599853 0.6446192331654513 1.617772090104183 0.7005251210970126
0.3106505773151494 0.5302809066875225 -0.7888589093218277 1.040866560719418 -0.9089500614479298
-0.158123514019003 0.8108206236808981 0.563530718353491 1.763395635058283 0.5986535858182239
-0.1855125707528334 0.7064313721194833 0.6830371897474246 1.827603098194175 0.7519129411587551
0.1877733526189698 0.6247991086303873 -0.7578702012224161 1.278849729405206 -0.8600423626914567
0.3134958732153337 0.6494634451256259 -0.6927608324108029 1.121084420321232 -0.765310330847651
-0.1307718419163033 0.8929150180915985 0.4308149206193975 1.716217462041215 0.4453956013649241
-0.2805744905838941 0.8368134727436832 0.4701288834652103 1.894306095707834 0.4894367997435518
0.4575591470209524 0.6561549514413217 -0.600083583075304 0.961861876203324 -0.6436055917313611
-0.3924815585980145 0.8470113201491497 0.3585108780771763 2.004714821380558 0.3666722445996846
-0.4196236363933914 0.7637625834370653 0.4904923240189666 2.073191312933155 0.5126546141770012
-0.5481464617789321 0.6715529215589547 0.4985500275648073 2.255359868446064 0.5219252993067813
-0.436239345221215 0.6613549138267291 0.6101679372420394 2.153900814690376 0.6562725427742568
-0.355494510030566 0.9090111756767584 0.2175369757831646 1.943587968300642 0.2192903020718628
-0.4945437030796354 0.8359604506965326 0.2379005057067587 2.105007157761153 0.240203723337114
-0.2128269270241551 0.9582693749665351 0.1908520477613513 1.789344123803315 0.1920300760895011
-0.3146689712204009 0.9466010833250543 0.07021273103168715 1.891724503025834 0.07027054883125783
-0.6463027579822127 0.6649044513180603 0.3744259815264088 2.342008749437491 0.3837776469046481
-0.6629184867709947 0.562496819632256 0.4941016168773908 2.437960866922141 0.5168011958683952
-0.2702558308207973 0.9602959050197719 -0.06923554513122342 1.845130338408672 -0.06929097892250623
-0.4123757347552378 0.9100194815834459 -0.04255345489703476 1.996267076065129 -0.04256630798126881
-0.7610607981278981 0.4393301787452391 0.4772582692804843 2.618061363327477 0.4975320709358257
-0.6629044956353347 0.4459786408998862 0.6013823089579148 2.549380315308441 0.6452301169027588
-0.1236722881720143 0.9872789376896168 -0.09992729523388531 1.695413025756671 -0.1000943503905117
-0.4964800264905053 0.8525148984278142 -0.1634806754775645 2.098152527698129 -0.1642177706995744
-0.5417207277341027 0.8402106522372365 -0.02418083973545427 2.143467724396047 -0.02418319683097353
-0.6462611446266348 0.3182727988220518 0.6935769304668731 2.683976494052799 0.7664425815279013
-0.8401253965540856 0.4216608343301738 0.3411619246880024 2.676424395670698 0.3481527048193569
-0.8401114074086848 0.3051426573741418 0.4484426181714288 2.793192178957192 0.4650221709083439
-0.8227232931508304 0.5215984968541193 0.2259676768623692 2.576554587926616 0.2279362925082609
-0.9008259137983081 0.3869510520166489 0.1969303338052622 2.735873235890973 0.1982259518786764
-0.0007082200542146558 0.9995502668555561 0.02997936712709523 1.571504865383884 0.02998385966590031
-0.7341333061547136 0.185352174799492 0.653217314598632 2.894283546214786 0.7118258180827218
-0.6202255363462167 0.181058399615618 0.7632418620546695 2.857561877602241 0.8683158393231466
-0.9362214313439826 0.3481209551961463 0.04797115847618458 2.785598667009 0.04798957634980146
-0.9547284340501491 0.2486666872696906 0.1632742963802574 2.886795615039512 0.1640085808497491
-0.5848000102459224 0.04429893689163199 0.8099670068630205 3.065986471410356 0.9440958563302555
-0.4965908178558641 0.1769410319603593 0.8497584544033953 2.799306196649551 1.015526933430795
-0.8953965297927642 0.4406715052320633 -0.06382537827215062 2.684242851756113 -0.06386879191954738
-0.9482694156223952 0.3021037038661378 -0.09756263375658804 2.833174476644393 -0.09771807494409743
0.3019618553733323 -0.2756220913147119 -0.9126069804021879 5.543358921976914 -1.149615918332851
0.2271380954738935 -0.1331638137907527 -0.9647153384709887 5.752924004354969 -1.304360076983776
0.3878103919590519 -0.1421975980380671 -0.9107046409241423 5.931739480512658 -1.144986778627006
-0.9369050111411876 0.2481997928410961 -0.2461825804807641 2.882626744453711 -0.248739635732909
-0.9785926771390033 0.1558067784972135 -0.1344641960680936 2.983702745702995 -0.1348727281460137
0.5282214241736545 -0.1419406384665708 -0.8371588751220753 6.020672221730425 -0.9920679897293937
-0.4020019609428826 0.6013169613968743 -0.6905159920917886 2.160091881488722 -0.7622021791707647
-0.4732654276748655 0.4706425543409961 -0.744657922143523 2.358973221417352 -0.8400221770489794
-0.5414331465859182 0.5564136667692539 -0.6302808732703741 2.342549972274091 -0.6819149373595469
0.3589959162759856 -0.4049929415943892 -0.8408939584489172 5.437653323039069 -0.9989329170263609
0.198948607982019 -0.3961509430625589 -0.8963726243547725 5.177798274353444 -1.111517943021463
-0.8702044802687292 0.3392587289344006 -0.3572781512519982 2.769857294467071 -0.3653520720897329
-0.8988249367589654 0.1923855735424944 -0.393829308397645 2.930733105747894 -0.404793881938307
-0.9869131912307179 0.001268299985986442 -0.1612474632046843 3.14030753621671 -0.1619545267468571
-0.9983887594284004 0.05533945819758511 -0.01254708784608063 3.086220547392511 -0.01254741708285198
-0.6692267315526863 0.5066431698251569 -0.5435515433193305 2.493589973835004 -0.5746625131114914
-0.7218064133674764 0.3543965617122437 -0.5944733624546349 2.68518252777941 -0.6366105621269987
-0.7781515414218119 0.434898673878503 -0.4531482340709029 2.631952128012205 -0.4702938285817189
-0.4210507257014761 0.3728416538882094 -0.8268647939730928 2.416844959354057 -0.97350993720945
-0.5580828212769875 0.3263222722389311 -0.7629268242999055 2.612484104691357 -0.867828390304597
-0.8162336632847979 0.490553533411365 -0.3051554321625361 2.600440792114423 -0.310101642216679
-0.5968127935741887 0.6365565969759073 -0.488477418385564 2.323981873274612 -0.5103439728189098
0.4370993679935226 -0.626147823612355 -0.645664808925788 5.321823146241204 -0.7018935638300622
0.2952706472573104 -0.6327450216819979 -0.71585542004297 5.149002691333822 -0.7978484323665923
0.3983186758333339 -0.519377060474167 -0.7560355160543669 5.366628837742371 -0.8572347515723434
0.184815568197596 -0.7302401747979335 -0.6577176391605164 4.960272576719106 -0.7177847783800079
0.1460348760374661 -0.6234694116598312 -0.7680883462891922 4.94247055971653 -0.875850427995557
-0.3206540213838944 0.7169069530750435 -0.6190520327104939 1.991381208244674 -0.6675350646183222
-0.2524863024734429 0.6311358406474086 -0.733429081584292 1.95134636582341 -0.8233528211517731
-0.6867078407390085 -0.4204782178914014 -0.5929843250427785 3.691014637508546 -0.6347600558556802
-0.7041210116475797 -0.5264215862129078 -0.4765437173287201 3.78357486645602 -0.4967191165219522
-0.7880358173042513 -0.3921078410612041 -0.4746061436854166 3.603299316436093 -0.4945165145350233
0.4999618657837515 -0.3976931247187636 -0.7693362797330281 5.611226807808332 -0.8778015612683574
-0.9502377541341359 -0.0540169452632567 -0.3068067473875692 3.198377256695657 -0.3118361488302742
-0.9705276666443969 -0.154504730308444 -0.1849441445142213 3.299464497107305 -0.1860150260659089
-0.937119965284458 -0.3427639615898718 0.06571938298914007 3.49224078584956 0.06576678258240992
-0.97795145338464 -0.1904012164058499 0.0857807181949599 3.333881060609237 0.0858862685685321
-0.9660165644500046 -0.2515642090994519 -0.05939230512766189 3.396348431073182 -0.05942727786076209
-0.8521822472821999 -0.2479578233197963 -0.4607627754838363 3.424742814779015 -0.4788544497146806
-0.869595418190325 -0.3539011916410103 -0.3443221677694693 3.528095090988043 -0.3515167092283474
-0.2439300503159494 0.4086097983025159 -0.8795090467323435 2.108988983347059 -1.074829545033388
-0.3321490817328887 0.2666518154020369 -0.9047506821477378 2.465142088116314 -1.130794023486783
-0.006864272186686097 -0.5985536780778399 -0.8010532917520761 4.70092138518249 -0.9290527644724415
0.1035908068729484 -0.501058524961754 -0.8591910726343488 4.91626059547028 -1.033686565539426
0.5260129944092879 -0.1399409754501086 0.8388842906519626 6.023167219501651 0.9952302039356976
0.583366800565933 -0.2736854069895581 0.764708751093138 5.844522439465673 0.8705892232145653
0.6529644299448977 -0.1338581720178881 0.7454659234403437 6.080986028527864 0.8412335821822354
0.2277387084268979 -0.8210837179722685 -0.5234086441442141 4.982951249696594 -0.5508464302423468
0.7633751590514808 -0.1335653243213616 0.6319957837533855 6.109971834615889 0.6841258142381825
-0.1906624188039301 0.5556309638694928 -0.8092725585643523 1.90135193251526 -0.9429127180354667
-0.9294260394832392 -0.3068405018355806 -0.2049783977978881 3.460466255435751 -0.2064416363665595
-0.4415379995116189 -0.4485043534995246 -0.7771023355255414 3.934817648724457 -0.8900485991927606
-0.4699860734411552 -0.5616193305547386 -0.6809528752554118 4.015584182881714 -0.7490630093274139
-0.5736380198062836 -0.4411173587867748 -0.6901846839866164 3.797132022608928 -0.7617442393526558
-0.7196254345677959 -0.1620474401394285 -0.675188759583103 3.363081305407702 -0.741220567131472
-0.6071907074905228 -0.1831782318898348 -0.773152753405737 3.434591436759578 -0.8837972733601883
-0.6574063990577904 -0.3069292313247778 -0.6881942120043224 3.578394146964854 -0.7589971706639148
-0.3836785770926934 0.1165641022425111 -0.9160805420641372 2.846647191161597 -1.158194337234156
-0.8652823250592215 -0.4510016745656371 -0.2188241016869462 3.622071085558854 -0.2206092024718181
0.9157833093812333 0.1365902667938345 -0.3777353958473384 0.1480598153831427 -0.3873492675340103
0.987511607180519 -0.1365383354318792 0.07860094554927298 6.145791374448556 0.07868210558616202
0.9157833093812335 0.1365902667938334 0.3777353958473381 0.1480598153831415 0.3873492675340101
0.843878278167329 0.1365902667938334 0.5188569655064231 0.1604684552527867 0.5455133075783251
0.7542350272075862 0.1365902667938289 0.6422403154196741 0.179156033977144 0.6974174728330403
0.07625510389218465 -0.1365902667937803 0.9876883405951474 5.221564115434828 1.413716694115469
0.2326895689324151 -0.1365902667937811 0.9629115554022865 5.752374711307319 1.297593112303697
-0.4699075412481309 -0.8721698826553779 -0.1360389593720885 4.2182008951807 -0.1364620958654183
-0.5944040536192403 -0.7856466293750755 -0.1715901943369669 4.064690338101377 -0.1724435775056901
-0.477277849675194 -0.825100570737057 -0.3023489744960378 4.187967230151195 -0.307156005016559
-0.3611734947517093 -0.8378749883009098 -0.4092911074877969 4.305397579559544 -0.4216769762946987
-0.4858495922008813 -0.7523941498362796 -0.4448069435725789 4.139015638105919 -0.4609586946706284
-0.8452573559314471 -0.2669065929294979 0.4629264227655903 3.447453470298852 0.481293845130428
-0.9173915796900731 -0.2047605758338365 0.3412708544513403 3.361191899324333 0.3482685894234777
-0.8778828373170503 -0.3440420004624836 0.333101825065456 3.515096548406321 0.3395913685104091
-0.60254288615616 -0.6475297137334274 -0.4665268911594598 3.96296266532681 -0.4853600892545625
-0.7038708627214932 -0.6191593369034677 -0.3481487098022324 3.863049685811021 -0.3555955402656961
-0.872790689284087 -0.4860077629855852 0.04508732656474289 3.649674752023178 0.04510261664593374
-0.8850075604227879 -0.4249228419511334 0.1902687477823866 3.589222101818117 0.1914358878833129
-0.4860997411264695 -0.6596563991453314 -0.5732019510987333 4.077325764401539 -0.6104081492494959
-0.4227426662385185 -0.8258589650520763 0.3731562782329433 4.239280703917633 0.3824087134565161
-0.2820177934456984 -0.8941009714837357 0.3479215672703538 4.406845641353349 0.3553532501135034
-0.01923444758254904 -0.9063993974062182 0.4219836115394041 4.691171445150911 0.4356321682156417
-0.2462960045766582 -0.9477955278953096 0.2025386763836133 4.458150224534 0.2039496349746371
-0.1374668655797448 -0.9387187715080936 0.3160853189979188 4.56698157370372 0.3216004058116158
0.01639239069385511 -0.9608147746076435 0.2767060867111585 4.729448252298261 0.2803646579740335
-0.07743672887312741 -0.9969971211100097 0.0005417746600394351 4.634874639659518 0.0005417746865430353
0.07295060529515755 -0.9961972606519262 -0.04763640474121052 4.785487579408041 -0.04765443946657283
0.04816326036481888 -0.9912767091983996 0.1226816455376361 4.760937900923111 0.1229914912343107
0.1664394095217873 -0.9591945647902222 0.2285688295348577 4.884198233285905 0.230607341575495
0.3133666515952256 -0.9331489747497522 0.1761656396448602 5.036372552696853 0.177089802251321
0.3289575110705663 -0.9441936248571445 0.01689244474267258 5.047638126578943 0.01689324823557348
0.4444396265595823 -0.8879615242623785 0.1183120863361497 5.176449913215348 0.1185898567537436
0.5696037197834904 -0.8202742287702682 0.05197876512723908 5.319351014823103 0.05200219959905641
0.5526574432681234 -0.8062612698564171 0.2109798927145873 5.313287724021199 0.2125773091326147
0.5809690740617444 0.8027845426838152 0.134208468480112 0.9443457572083966 0.134614661387281
0.6090893132472444 0.7907426935912006 -0.06112447153254356 0.9144450026093439 -0.06116259788768494
0.6414276713468628 -0.7086295507460701 0.2939637770882046 5.448051134531024 0.2983712144569879
0.7108783636267804 0.6951892925125783 -0.1066011243053837 0.7742405068089603 -0.1068040627670805
0.7125623467626929 -0.5942947422970353 0.3729191081912326 5.588039030167974 0.3821530916581074
0.7487541782944325 -0.6239440098218088 0.2237432749695773 5.588461065284148 0.2256534308205242
0.798382078200697 0.5824102569751053 -0.1529194225012898 0.6302437594925584 -0.1535217696319272
0.7931601551394211 0.6090052222808963 -0.003099602201179592 0.6548094888728587 -0.003099607164456539
-0.2570792258064053 -0.3269175564613033 0.9094147474811204 4.046012429675873 1.141874661776017
-0.1977621389173094 -0.4658207858640263 0.8624970329617788 4.310903324272915 1.040183359347892
-0.1010280712438474 -0.3680246143730472 0.9243112095156685 4.444474245945399 1.179226811882685
0.7703383206583451 -0.6336525790790649 0.07115673370616715 5.594836450816621 0.07121691869068174
0.8413202524842279 -0.5192487069583238 0.1502032392526327 5.730226835148001 0.150773840999683
0.7690099638371637 0.6218849075843609 0.1479284869048394 0.6800127782647396 0.1484733857490436
0.8552693351767113 0.5081203364137264 0.1016272012267758 0.536074139983592 0.1018029550790036
0.5822913734563772 -0.2616321633642688 -0.7697307110227697 5.860901295214292 -0.8784192050810569
0.6225214526424292 -0.3764708252969537 -0.6861025861343115 5.739279328877021 -0.7561181901575269
-0.004129942990790267 -0.2514826228565412 0.9678530022540032 4.695968077303617 1.316549486337288
0.05560341415408286 -0.3896833880003884 0.9192687949946676 4.854120952340933 1.166218844426535
0.9127628616654326 -0.4010881622229784 0.07740958912772931 5.869162711604055 0.07748710787089792
0.8436162887974039 -0.5164226137548261 -0.1470348301537051 5.733877347098193 -0.1475698485977121
0.8940112170443149 -0.3878030161559572 -0.2243942166351114 5.873902588183376 -0.2263213555955113
0.9130562814731005 -0.3999705327723329 -0.079698179253546 5.870307595990079 -0.0797827924743626
0.9623343457488612 -0.2718687214308329 7.279886957004503e-05 6.007850943136233 7.279886963434676e-05
-0.6903887418578809 0.07480795353882505 -0.7195603902406144 3.03365748761102 -0.803169059786797
-0.6109010918100342 0.2078648230741922 -0.7639319808423017 2.813621667881286 -0.8693846229059847
0.9240610585053303 0.3798508013036161 0.04271450459749523 0.3900101474710058 0.04272750424823606
0.8992846577330225 0.3921142160477211 0.1937357631912134 0.41117512383316 0.1949686338627045
0.7646630878784496 0.5269038964734087 0.37102917124848 0.603350451102918 0.3801170545024675
0.7860411914514653 0.4048834141851276 0.4671281047628748 0.4756480685054722 0.4860399272310441
0.8495357886986048 0.3968174344483778 0.347598716105291 0.4369822323747103 0.3550089062172066
-0.3039834447078153 0.642151856095594 0.7037293933441704 2.01292409329874 0.780633150326805
0.210659775756013 -0.399117654220182 0.8923718714573009 5.198039188834467 1.102573797481926
0.573368968480503 0.5470722693897838 -0.6098852007126554 0.7619325220182971 -0.6559157238349268
-0.09269132811729586 0.8151481675741179 -0.5717882322961968 1.684021010588888 -0.6086839082616636
-0.1789181684330702 -0.9799092416792292 -0.08812585929336178 4.531791879232256 -0.0882403264745554
-0.3280132242125844 -0.9347803536183605 -0.136356207159035 4.374913749138909 -0.1367823276718434
0.07063915686004249 -0.1330423837188073 -0.9885898207307822 5.200490712288373 -1.419588230227391
0.3854438817305874 -0.140133207510466 0.9120283428651138 5.934478932231453 1.148202824184167
0.7783014432841345 0.272931424381421 0.5654690981538795 0.3372766763933902 0.6010019055041567
-0.1173378007324597 -0.6008971941312261 -0.7906670617930718 4.519544635916749 -0.9118977638618159
-0.2594470861114862 -0.6416928506265567 -0.7217461430191523 4.328166924771336 -0.8063217646869641
0.8511910513644393 -0.3751138378585342 -0.3671013521142925 5.868098082942793 -0.3758908776960634
0.9186482452691489 -0.2577239181669974 -0.2994391147939169 6.009669535158634 -0.3041047408745178
-0.8950326347227993 -0.1019214553340412 -0.4341988020754495 3.254978797265732 -0.449148673470927
-0.813522027441998 -0.1401051536670668 -0.5644045152039348 3.31214012605442 -0.5997117115433841
0.9189123213569786 0.2686212281793364 0.2888646420553294 0.2844009060987885 0.2930407117235886
0.6775946472691657 0.7135574896944566 0.1780483161760323 0.811243528251705 0.17900271924188
-0.1783060543675457 -0.2901588041743089 -0.940220622692362 4.16136720320671 -1.223277539220759
-0.04970340195841431 -0.3816084102723513 -0.9229867783685577 4.582870956631362 -1.175770896732856
-0.1548092188860241 -0.1453078357427477 -0.977199948127126 3.895342463346894 -1.356846692843408
-0.2820953627079284 -0.1430613667169505 -0.9486599241518324 3.610934593142568 -1.248971865833826
0.4076864535953996 -0.5082207815248622 0.7586193991594629 5.38846006126967 0.8611914925541423
0.5007365627201709 -0.3848589644842992 0.7753363606920942 5.627895070183339 0.8872475177758464
0.3628880115796108 -0.4024949249505693 0.8404225880120262 5.4460854209813 0.9980625326017066
-0.3601179565377374 -0.0529421605243808 -0.9314033417473307 3.287560436342764 -1.198249474464887
0.0459666919026047 -0.370567962953961 -0.9276672076060912 4.835802464515208 -1.188116253727598
-0.3526577821200926 -0.6652858496306573 -0.6580480430723518 4.224964357485099 -0.7182234917250842
-0.1614088451345804 -0.7989989261550852 -0.5792649658967317 4.513057783266509 -0.617826673254303
-0.07410403331333903 -0.7171111139611472 -0.693008111410031 4.609417578203812 -0.7656532744409761
0.9656532177933372 0.1318996250045812 0.2238668173022177 0.1357510079357949 0.2257801884971095
-0.9644491508420415 -0.1300871924109235 0.2300329494022723 3.27566586047241 0.2321115400877306
-0.9937020796022303 -0.03893017398812672 0.105074347713687 3.180749535759462 0.1052686623113013
-0.01199815807148615 0.2864318649152539 0.9580254855503905 1.6126602025045 1.280033572690761
-0.6393556898510427 -0.08322032727467696 0.7643943216582609 3.271027749459415 0.8701014048862074
-0.5165412165080512 -0.08679915339804127 0.8518515590276078 3.308076434373525 1.019510169305996
0.6972487742151814 0.4053699107387517 0.5912016426931538 0.5266194642236067 0.632547932227525
0.5921991622844112 0.5315232868670651 0.6056262442362231 0.7314551177336671 0.6505526188720232
-0.910474070917428 0.05365766243131015 -0.4100705079001094 3.082726978858194 -0.4225313675748586
-0.7616815948794342 -0.01604427218544686 -0.6477528304468925 3.162653816097603 -0.7046311045952782
0.2188463123557297 -0.9739450300169589 -0.05947579401372757 4.933418704659008 -0.0595109145969994
0.7386253413729837 0.6121391465390689 0.2823442408763876 0.6920299786401367 0.2862368994370924
0.9890001748215612 0.1317088122211004 0.06731599353963595 0.1323946836814884 0.06736693725446534
-0.08018376430579395 -0.1146113158162978 0.9901690816363686 4.101921635986967 1.430460525579086
0.3049255280301877 -0.2766682350807191 0.9113040711271025 5.546334930050521 1.146440308647874
0.7763012982026471 -0.6257000389570899 -0.07652290936694021 5.60479558993886 -0.07659779009595474
-0.984541245585959 0.11545894012722 0.1317109292532224 3.024854044846583 0.1320947482764292
-0.9314725031737986 -0.05325904517082691 0.3598922754639639 3.198707726466917 0.3681524297241089
0.9180832766644962 -0.1224161253420832 -0.3770111263148788 6.150628400570357 -0.386567170704817
0.6834510119800878 -0.7299898128883449 -0.003096336970217857 5.464873141847395 -0.003096341917825801
-0.6646199254490933 0.7469743441390518 -0.01759783776703842 2.297919124779618 -0.01759874618812747
-0.5821179609359298 0.806503471415195 0.1033964706894537 2.195990583748966 0.1035815950405906
0.3496691947449043 -0.9295328891118301 -0.1170472652643564 5.072191425342192 -0.117316185625133
0.8391386506953866 -0.1241922165284149 0.5295494483642535 6.136252275594651 0.5580693411363764
-0.6199270206473619 0.7455541210391132 0.2446212208147132 2.264450683588676 0.2471290257129325
0.9152652124023423 0.2659675405464741 -0.3025737238124867 0.2828021934293047 -0.3073917985117902
0.962603524505847 0.1296376896052586 -0.2378834253215892 0.1338685721361179 -0.2401861381085349
-0.6900255085851487 -0.6862062170247623 -0.2301865009473225 3.924215643530301 -0.2322693258631211
-0.6164423178357872 -0.537839567640345 0.5750890959335685 3.858999115508738 0.6127130510275964
-0.5500636780678133 -0.6748031923614677 0.49200670894743 4.02848016812634 0.5143932507471158
0.6488606375117093 -0.1198331541124143 -0.7514119298117169 6.100560626903766 -0.8501993075048231
-0.8497705651927011 -0.5174129261719445 -0.1008655063054919 3.688519963922423 -0.1010373258649605
-0.7900285388645431 -0.5642452117576678 -0.2397545594730158 3.761791104931668 -0.2421130289192278
-0.1037142423417665 0.9826052006752157 0.1540466667652769 1.675957220795741 0.1546625305161217
0.0674897547030954 0.9876988394586418 0.1410536619239933 1.502572078603879 0.1415256371030505
-0.4371759486919585 0.267923805640233 0.858541801111944 2.591777289399806 1.032418950500279
-0.32471585359608 0.3791124722745153 0.8665064037785722 2.279061054246163 1.04816035413
0.07688292798448898 0.9533279066364848 0.2919844478951399 1.490323600945829 0.2963010466203114
0.3778410090116055 0.1384593156572143 0.9154590049897525 0.3512525732046884 1.156647081448389
-0.1576827896458332 0.2350354904036506 0.9591112845234506 2.161716579757959 1.283845313133734
-0.05400117894080702 0.1409291725448289 0.9885458213956664 1.936718767378256 1.41929641254521
-0.7705025792824788 -0.3273733731400361 0.546948306403779 3.543364115170577 0.578714613310501
-0.7338289944710553 0.6355818215671661 0.2398556961319926 2.427815893994646 0.2422172053373135
0.9651444781266318 0.2613245503169452 -0.01433930763034827 0.2644220204262875 -0.01433979907372096
0.9201714000972627 0.3768624494774446 -0.1061097951034857 0.3887177481917479 -0.106309930929858
0.5798911265992749 -0.5891386330040099 -0.5627094742347869 5.489876897315233 -0.5976597947070317
0.4784319539135636 -0.7045135559143054 -0.5241788959958522 5.30894684379162 -0.5517506461628832
-0.4251983496687695 -0.3081774214431795 -0.8510188249102294 3.768759960474012 -1.017922373924979
0.7765177070207885 0.4953879773286863 -0.3893725755640348 0.5678653095461187 -0.3999503113646075
0.8565921017325233 0.3647172397833146 -0.3650086386022921 0.4025286135058901 -0.3736420818596416
-0.7940226982721661 0.6003061343329585 0.09571049948050953 2.49424257704048 0.09585723115032542
0.5968869838950707 0.630835391721382 0.4957546137035705 0.8130426537697805 0.5187035238547689
-0.5779912110668657 -0.3419490222825389 0.7409433352756968 3.675824863066008 0.8344739486908901
-0.4625123920827331 -0.3194170105561319 0.8270762120489816 3.74599070842546 0.973885961841312
-0.9475221721749082 0.1539709806715751 0.2801690031891055 2.98050216010305 0.283970158717764
0.6747071108420859 0.619601787643518 0.4010784702874015 0.7428487657369722 0.4126938562019878
0.2328877456416277 0.1546719555691282 -0.9601249315013032 0.5862569583982281 -1.287448743337907
0.6265817854995215 -0.3785596268874746 0.6812399540331202 5.739707948469144 0.7494550896858664
-0.2310807983494716 0.3023158406797156 0.9247739167538668 2.223430227011186 1.18044101685311
-0.2076394925778725 0.455156717258008 0.8658626934202197 1.998788738745581 1.046872222121689
0.6820372361557341 -0.5521827775341455 -0.4794991018674842 5.602613246611811 -0.5000838268112971
0.7836564246444176 -0.4711527092145313 -0.4048428494037353 5.741866612533116 -0.4168069595187109
-0.8418863766844007 0.1440312038258522 -0.5200791680866358 2.972151539360108 -0.5469436379444136
0.3767207785198951 -0.7986760894660662 -0.4692525536920991 5.153126282189404 -0.4884441637700733
0.2707566660570593 -0.8811363264188526 -0.3876720289764984 5.01051235588268 -0.3981047780554868
-0.2030203857705692 -0.9757595383208154 0.08170707642253727 4.50725178083797 0.08179826400807187
-0.2993665201289764 -0.05755532991459151 0.9524006880637422 3.331532123776069 1.26101641970981
-0.2773365082440971 -0.215706268559049 0.9362453027381784 3.802636036950882 1.211786856932695
-0.1803452974479266 -0.0703806821435544 0.9810821236111821 3.513670178445081 1.375974219147454
0.9881735623024525 0.1297461585847616 -0.08172481323918034 0.1305521612444769 -0.08181606034170784
-0.1816766789191947 0.5943401360956989 0.7834241424430561 1.86745408196049 0.9001564363601811
-0.663287504629225 0.3057849946129252 -0.6830411578172351 2.709617115189348 -0.7519183740298
0.8465680589977782 -0.1224518736995614 -0.5180039190123961 6.139536550222328 -0.5445157320737468
0.3288316734132971 -0.907158753471992 -0.2625504266980958 5.060142937027281 -0.2656644092703359
0.783156773579444 -0.2571354642944103 0.5661685446920673 5.965942646216623 0.6018502032350854
-0.4443940986014558 -0.8958144773035726 -0.005505214030951175 4.251883672159632 -0.005505241839434108
-0.3469532245563862 -0.9309948036402745 0.1134554342670833 4.355663187276567 0.1137002573519133
-0.5268963405972782 -0.7515600949546889 0.396910153481737 4.100945162603786 0.4081480173075743
-0.850121971814765 0.4992033480867595 -0.1675966893967344 2.610627829110034 -0.1683913697619225
0.7598868892387769 -0.1197092535095036 -0.6389378766258987 6.126933829488134 -0.6931167616717691
-0.4891354601197608 0.7357075760696892 -0.4684878484732475 2.157540445487474 -0.4875783947628541
0.6418437488255011 -0.4754478896191509 -0.6016526459264704 5.645628384843741 -0.6455685204952328
0.7233527239134446 -0.3392673106337493 -0.6013805190911516 5.844626937729724 -0.6452278766627993
-0.4279879705342215 -0.08118212961123204 0.9001309676429222 3.329048824413567 1.120070068638927
-0.3306179777544049 0.06471268025228026 0.9415434253395613 2.948303815292965 1.227182731047509
0.2019517632026157 0.09630175377839889 0.9746494023794193 0.4449609459832248 1.345148652546635
-0.9245091471798138 0.07433575741660602 0.3738409179720072 3.061359612151353 0.3831467654956364
0.7811045345894254 0.561729563299899 -0.272645564348188 0.6234615400624957 -0.276141703908562
-0.8911039784736877 0.2065897728152223 0.4040474790374524 2.913781433820088 0.4159372861793101
-0.6613890322560866 -0.3596464854178171 0.6581937051795385 3.639643643050263 0.7184169566346735
-0.6972087526335958 -0.4389063507505727 0.5667990565640708 3.703435188189236 0.6026153199233866
0.2595634978521491 0.7734286297329462 0.5783035062077478 1.247006174058318 0.616647663373647
0.1405330598035446 0.8515803521783303 0.5050360015742288 1.407244213572774 0.5294236768344887
0.09103304724947027 0.9020642195187062 0.4218923182194517 1.470220459056457 0.4355314723934131
0.7733937053167091 -0.4819118326577279 0.4118533259802103 5.725943936883345 0.4244869575762091
0.6675863414915211 -0.5670481369243486 0.4824778617352214 5.579039417298446 0.5034814213749326
-0.02203282878611958 0.9189639788274572 0.3937254882190007 1.594767460592081 0.404680936420364
-0.1439031525274479 0.9429401670882709 0.3002594278023685 1.722238951092613 0.3049646198807233
-0.253457637079517 -0.8201656467089421 -0.512920596354417 4.412666452729656 -0.5385835750689298
0.789691978969015 -0.2423435600499129 -0.5636099513443097 5.985425259470037 -0.5987495016301604
-0.7512346506241625 0.6599797903273702 -0.008554300733143533 2.420768649537406 -0.008554405064917892
-0.8118663992320976 0.2240277154877136 0.5391516785574024 2.872351252941163 0.5694295262652189
-0.7707216091643334 0.2343561883722766 -0.5925077030206093 2.846402702428603 -0.6341682650870695
-0.8380727409538613 0.5450915749364211 -0.02256669677675971 2.564928688929659 -0.02256861258604508
-0.2306264289009448 0.8028042233278251 -0.5498334559658997 1.850539287766562 -0.5821648363494669
-0.3731913239908972 -0.3124943791027681 0.873541927286319 3.838700876855 1.062432182920424
-0.4807085336277798 -0.2076441275915637 0.8519408559132308 3.549338895563138 1.019680677363236
-0.09924780219876211 0.04425959831566669 0.9940779454930339 2.722111466319675 1.461911902960519
-0.3799141892022035 0.7734925446930917 -0.5073208966197211 2.02735278297414 -0.5320730508958706
0.04555020091534852 0.09581722137612476 0.9943561933655012 1.127032795515875 1.464503115368463
0.6378143271741323 -0.473179956544138 0.6076953289077484 5.644903041423099 0.653155371421466
-0.4394595851588518 0.8557470690100267 -0.2730791586568965 2.045216461814116 -0.2765924007792334
0.9056522318404432 0.3584526626150327 -0.2265076679201342 0.3768761649888903 -0.2284906570659163
-0.6526653190291221 -0.2314946294317792 0.7214140405348772 3.482440565851066 0.8058420772072364
0.04492611650645034 -0.2774357320886114 -0.9596932106752163 4.872928830327121 -1.285908591524931
-0.02539523828768103 -0.146254364173237 -0.9889209992879078 4.540465658120617 -1.421802912553997
-0.5036458235461619 -0.2181246164034649 -0.8359201733080436 3.550296681202091 -0.9898071957188743
0.7951833195574498 -0.3522617746907506 0.4935535739808977 5.866172472819789 0.5161709426155223
-0.785805596343541 0.09674042663711142 -0.6108607489512169 3.019099138720477 -0.6571472993675436
0.8630293496568261 0.47588292390989 -0.1694573231285372 0.5039250201676656 -0.1702790025364863
0.8082902306621969 -0.3415402903541034 -0.4796010144702442 5.883394543866004 -0.5001999646072617
-0.2718356916223382 0.1559877618276078 0.9496173834340959 2.620637310394383 1.252012819132575
-0.4027870016385947 0.1319980717457606 0.9057257533969053 2.824909941360515 1.133088832207427
-0.384553638071954 -0.1987175896440836 -0.9014598266210593 3.618549262075645 -1.123130253446925
-0.2754675792977705 -0.7391630368078089 -0.6146182699634662 4.35565822919441 -0.6619019526869839
-0.4003986299414042 0.8237595090569686 -0.4013741501134179 2.023231919043796 -0.4130166581900387
0.7182404645660833 -0.3612169982980526 0.5946872414979504 5.817204979005245 0.6368765688517153
3 1 0 0
$EndNodes
$Elements
4 332 1 332
0 1 15 1
1 1 
0 2 15 1
2 2 
1 2 8 10
3 2 3 12 
4 3 4 13 
5 4 5 14 
6 5 6 15 
7 6 7 16 
8 7 8 17 
9 8 9 18 
10 9 10 19 
11 10 11 20 
12 11 1 21 
2 1 9 320
13 86 139 121 173 174 175 
14 121 148 86 176 177 175 
15 101 127 126 178 179 180 
16 55 124 119 181 182 183 
17 44 132 58 184 185 186 
18 55 119 56 183 187 188 
19 126 127 68 179 189 190 
20 110 156 2 191 192 193 
21 5 31 28 194 195 196 
22 56 170 108 197 198 199 
23 81 156 109 200 201 202 
24 37 132 44 203 184 204 
25 59 112 40 205 206 207 
26 48 135 134 208 209 210 
27 22 156 81 211 200 212 
28 54 113 55 213 214 215 
29 134 135 123 209 216 217 
30 108 136 56 218 219 199 
31 4 31 5 220 194 14 
32 90 144 117 221 222 223 
33 30 46 23 224 225 226 
34 122 170 56 227 197 228 
35 22 31 4 229 220 230 
36 90 124 113 231 232 233 
37 31 131 28 234 235 195 
38 58 132 112 185 236 237 
39 119 122 56 238 228 187 
40 10 30 23 239 226 240 
41 3 22 4 241 230 13 
42 54 131 113 242 243 213 
43 96 158 118 244 245 246 
44 98 127 101 247 178 248 
45 109 156 110 201 191 249 
46 119 124 106 182 250 251 
47 113 124 55 232 181 214 
48 120 158 96 252 244 253 
49 90 150 124 254 255 231 
50 150 155 106 256 257 258 
51 109 144 81 259 260 202 
52 115 157 97 261 262 263 
53 103 161 114 264 265 266 
54 86 167 99 267 268 269 
55 59 127 112 270 271 205 
56 112 127 98 271 247 272 
57 100 148 121 273 176 274 
58 148 167 86 275 267 177 
59 106 155 105 257 276 277 
60 112 132 40 236 278 206 
61 46 47 23 279 280 225 
62 118 138 96 281 282 246 
63 141 151 140 283 284 285 
64 92 137 70 286 287 288 
65 116 166 87 289 290 291 
66 34 134 123 292 217 293 
67 8 128 32 294 295 296 
68 87 165 116 297 298 291 
69 37 147 132 299 300 203 
70 47 153 23 301 302 280 
71 46 53 47 303 304 279 
72 118 158 69 245 305 306 
73 32 128 35 295 307 308 
74 97 164 115 309 310 263 
75 46 108 53 311 312 303 
76 53 61 47 313 314 304 
77 7 24 6 315 316 16 
78 22 43 31 317 318 229 
79 61 104 47 319 320 314 
80 53 62 61 321 322 313 
81 22 81 43 212 323 317 
82 62 63 61 324 325 322 
83 81 90 43 326 327 323 
84 62 65 63 328 329 324 
85 90 113 43 233 330 327 
86 65 66 63 331 332 329 
87 66 70 63 333 334 332 
88 65 67 66 335 336 331 
89 65 91 67 337 338 335 
90 66 71 70 339 340 333 
91 91 105 67 341 342 338 
92 71 72 70 343 344 340 
93 91 106 105 345 277 341 
94 105 116 67 346 347 342 
95 72 92 70 348 288 344 
96 71 73 72 349 350 343 
97 71 74 73 351 352 349 
98 91 119 106 353 251 345 
99 72 97 92 354 355 348 
100 74 75 73 356 357 352 
101 97 111 92 358 359 355 
102 74 76 75 360 361 356 
103 26 38 3 362 363 364 
104 76 77 75 365 366 361 
105 4 26 3 367 364 13 
106 89 102 88 368 369 370 
107 26 45 38 371 372 362 
108 76 78 77 373 374 365 
109 77 79 75 375 376 366 
110 87 88 78 377 378 379 
111 102 103 88 380 381 369 
112 76 87 78 382 379 373 
113 87 89 88 383 370 377 
114 49 50 45 384 385 386 
115 50 69 45 387 388 385 
116 89 117 102 389 390 368 
117 84 93 83 391 392 393 
118 26 49 45 394 386 371 
119 77 80 79 395 396 375 
120 82 85 79 397 398 399 
121 80 84 83 400 393 401 
122 102 109 103 402 403 380 
123 69 140 45 404 405 388 
124 10 39 25 406 407 408 
125 50 118 69 409 306 387 
126 10 25 9 408 410 19 
127 117 144 102 222 411 390 
128 80 82 79 412 399 396 
129 95 141 93 413 414 415 
130 84 114 95 416 417 418 
131 109 110 103 249 419 403 
132 80 83 82 401 420 412 
133 5 28 6 196 421 15 
134 8 32 7 296 422 17 
135 8 27 9 423 424 18 
136 9 30 10 425 239 19 
137 1 29 11 426 427 21 
138 84 95 93 418 415 391 
139 120 121 94 428 429 430 
140 107 120 94 431 430 432 
141 99 115 85 433 434 435 
142 93 94 83 436 437 392 
143 82 86 85 438 439 397 
144 93 107 94 440 432 436 
145 86 99 85 269 435 439 
146 98 101 100 248 441 442 
147 58 112 98 237 272 443 
148 98 100 64 442 444 445 
149 58 98 64 443 445 446 
150 64 96 57 447 448 449 
151 58 64 57 446 449 450 
152 44 58 57 186 450 451 
153 44 57 48 451 452 453 
154 44 48 36 453 454 455 
155 55 56 52 188 456 457 
156 37 44 36 204 455 458 
157 54 55 52 215 457 459 
158 35 37 36 460 458 461 
159 51 54 52 462 459 463 
160 60 68 59 464 465 466 
161 35 36 33 461 467 468 
162 51 52 42 463 469 470 
163 26 129 49 471 472 394 
164 29 60 59 473 466 474 
165 32 35 33 308 468 475 
166 33 34 24 476 477 478 
167 7 32 24 422 479 315 
168 114 163 103 480 481 266 
169 41 51 42 482 470 483 
170 42 133 27 484 485 486 
171 70 137 63 287 487 334 
172 29 59 40 474 207 488 
173 32 33 24 475 478 479 
174 113 131 43 243 489 330 
175 117 150 90 490 254 223 
176 96 152 120 491 492 253 
177 3 38 2 363 493 12 
178 11 39 10 494 406 20 
179 27 30 9 495 425 424 
180 140 171 141 496 497 285 
181 34 146 24 498 499 477 
182 80 143 84 500 501 400 
183 41 42 27 483 486 502 
184 56 136 52 219 503 456 
185 151 162 140 504 505 284 
186 110 162 151 506 504 507 
187 40 147 39 508 509 510 
188 110 161 103 511 264 419 
189 45 140 38 405 512 372 
190 93 141 107 414 513 440 
191 102 144 109 411 259 402 
192 158 171 69 514 515 305 
193 8 41 27 516 502 423 
194 69 171 140 515 496 404 
195 85 142 79 517 518 398 
196 104 153 47 519 301 320 
197 97 125 111 520 521 358 
198 30 133 46 522 523 224 
199 77 143 80 524 500 395 
200 84 143 114 501 525 416 
201 96 138 57 282 526 448 
202 52 136 42 503 527 469 
203 7 41 8 528 516 17 
204 43 131 31 489 234 318 
205 1 60 29 529 473 426 
206 29 40 39 488 510 530 
207 29 39 11 530 494 427 
208 33 134 34 531 292 476 
209 79 142 75 518 532 376 
210 115 142 85 533 517 434 
211 24 146 6 499 534 316 
212 36 134 33 535 531 467 
213 116 145 67 536 537 347 
214 57 138 48 526 538 452 
215 9 128 8 539 294 18 
216 67 145 66 537 540 336 
217 28 149 6 541 542 421 
218 121 139 94 174 543 429 
219 126 167 101 544 545 180 
220 48 134 36 210 535 454 
221 27 133 30 485 522 495 
222 4 129 26 546 471 367 
223 81 144 90 260 221 326 
224 132 147 40 300 508 278 
225 82 139 86 547 173 438 
226 94 139 83 543 548 437 
227 91 168 119 549 550 353 
228 92 159 137 551 552 286 
229 119 168 122 550 553 238 
230 124 150 106 255 258 250 
231 10 23 11 240 554 20 
232 83 139 82 548 547 420 
233 104 154 153 555 556 519 
234 99 157 115 557 261 433 
235 66 145 71 540 558 339 
236 41 149 51 559 560 482 
237 49 123 50 561 562 384 
238 95 151 141 563 283 413 
239 131 169 28 564 565 235 
240 71 145 74 558 566 351 
241 46 133 108 523 567 311 
242 125 126 68 568 190 569 
243 75 142 73 532 570 357 
244 42 136 133 527 571 484 
245 3 156 22 572 211 241 
246 39 147 25 509 573 407 
247 137 159 104 552 574 575 
248 123 130 34 576 577 293 
249 78 143 77 578 524 374 
250 50 135 118 579 580 409 
251 64 152 96 581 491 447 
252 154 172 60 582 583 584 
253 7 149 41 585 559 528 
254 63 137 61 487 586 325 
255 103 163 88 481 587 381 
256 6 146 5 534 588 15 
257 48 138 135 538 589 208 
258 25 128 9 590 539 410 
259 121 152 100 591 592 274 
260 6 149 7 542 585 16 
261 101 148 100 593 273 441 
262 76 165 87 594 297 382 
263 5 129 4 595 546 14 
264 87 166 89 290 596 383 
265 49 130 123 597 576 561 
266 68 127 59 189 270 465 
267 129 130 49 598 597 472 
268 111 172 154 599 582 600 
269 23 153 11 302 601 554 
270 115 164 142 310 602 533 
271 54 169 131 603 564 242 
272 120 152 121 492 591 428 
273 142 164 73 602 604 570 
274 126 157 99 605 557 606 
275 53 170 62 607 608 321 
276 62 170 122 608 227 609 
277 100 152 64 592 581 444 
278 35 160 37 610 611 460 
279 62 168 65 612 613 328 
280 61 137 104 586 575 319 
281 107 158 120 614 252 431 
282 5 146 129 588 615 595 
283 116 165 145 298 616 536 
284 72 164 97 617 309 354 
285 88 163 78 587 618 378 
286 145 165 74 616 619 566 
287 122 168 62 553 612 609 
288 117 155 150 620 256 490 
289 68 172 125 621 622 569 
290 1 154 60 623 584 529 
291 89 155 117 624 620 389 
292 11 153 1 601 625 21 
293 37 160 147 611 626 299 
294 105 166 116 627 289 346 
295 28 169 149 565 628 541 
296 97 157 125 262 629 520 
297 123 135 50 216 579 562 
298 38 162 2 630 631 493 
299 114 161 95 265 632 417 
300 74 165 76 619 594 360 
301 128 160 35 633 610 307 
302 78 163 143 618 634 578 
303 65 168 91 613 549 337 
304 73 164 72 604 617 350 
305 51 169 54 635 603 462 
306 129 146 130 615 636 598 
307 149 169 51 628 635 560 
308 99 167 126 268 544 606 
309 104 159 154 574 637 555 
310 125 172 111 622 599 521 
311 108 170 53 198 607 312 
312 2 156 3 192 572 12 
313 111 159 92 638 551 359 
314 60 172 68 583 621 464 
315 135 138 118 589 281 580 
316 143 163 114 634 480 525 
317 130 146 34 636 498 577 
318 2 162 110 631 506 193 
319 151 161 110 639 511 507 
320 140 162 38 505 630 512 
321 153 154 1 556 623 625 
322 133 136 108 571 218 567 
323 107 171 158 640 514 614 
324 155 166 105 641 627 276 
325 25 160 128 642 633 590 
326 141 171 107 497 640 513 
327 101 167 148 545 275 593 
328 125 157 126 629 605 568 
329 95 161 151 632 639 563 
330 89 166 155 596 641 624 
331 147 160 25 626 642 573 
332 154 159 111 637 638 600 
$EndElements
